solid OpenSCAD_Model
  facet normal 0 1 0
    outer loop
      vertex -4 29 0
      vertex -2 29 4
      vertex -2 29 0
    endloop
  endfacet
  facet normal 0 1 0
    outer loop
      vertex -4 29 0
      vertex -4 29 4
      vertex -2 29 4
    endloop
  endfacet
  facet normal -1 0 0
    outer loop
      vertex -4 27 0
      vertex -4 29 4
      vertex -4 29 0
    endloop
  endfacet
  facet normal -1 0 0
    outer loop
      vertex -4 27 0
      vertex -4 27 4
      vertex -4 29 4
    endloop
  endfacet
  facet normal 0 -1 0
    outer loop
      vertex -2 27 0
      vertex -4 27 4
      vertex -4 27 0
    endloop
  endfacet
  facet normal 0 -1 0
    outer loop
      vertex -2 27 0
      vertex -2 27 4
      vertex -4 27 4
    endloop
  endfacet
  facet normal 1 0 0
    outer loop
      vertex -2 29 0
      vertex -2 27 4
      vertex -2 27 0
    endloop
  endfacet
  facet normal 1 0 0
    outer loop
      vertex -2 29 0
      vertex -2 29 4
      vertex -2 27 4
    endloop
  endfacet
  facet normal 0 -1 0
    outer loop
      vertex 10.219766817986965 0.5069064497947693 0
      vertex 4 0.5069064497947693 4
      vertex 4 0.5069064497947693 0
    endloop
  endfacet
  facet normal 0 -1 0
    outer loop
      vertex 10.219766817986965 0.5069064497947693 0
      vertex 10.219766817986965 0.5069064497947693 4
      vertex 4 0.5069064497947693 4
    endloop
  endfacet
  facet normal 0.12533322901623603 -0.9921147018890325 0
    outer loop
      vertex 10.655834600329399 0.5619946196675301 0
      vertex 10.219766817986965 0.5069064497947693 4
      vertex 10.219766817986965 0.5069064497947693 0
    endloop
  endfacet
  facet normal 0.12533322901623603 -0.9921147018890325 0
    outer loop
      vertex 10.655834600329399 0.5619946196675301 0
      vertex 10.655834600329399 0.5619946196675301 4
      vertex 10.219766817986965 0.5069064497947693 4
    endloop
  endfacet
  facet normal 0.24868989104821995 -0.9685831601315523 0
    outer loop
      vertex 11.081559479236603 0.6713021919131279 0
      vertex 10.655834600329399 0.5619946196675301 4
      vertex 10.655834600329399 0.5619946196675301 0
    endloop
  endfacet
  facet normal 0.24868989104821995 -0.9685831601315523 0
    outer loop
      vertex 11.081559479236603 0.6713021919131279 0
      vertex 11.081559479236603 0.6713021919131279 4
      vertex 10.655834600329399 0.5619946196675301 4
    endloop
  endfacet
  facet normal 0.36812455762530033 -0.9297764839321205 0
    outer loop
      vertex 11.49022752046585 0.8331053182482719 0
      vertex 11.081559479236603 0.6713021919131279 4
      vertex 11.081559479236603 0.6713021919131279 0
    endloop
  endfacet
  facet normal 0.36812455762530033 -0.9297764839321205 0
    outer loop
      vertex 11.49022752046585 0.8331053182482719 0
      vertex 11.49022752046585 0.8331053182482719 4
      vertex 11.081559479236603 0.6713021919131279 4
    endloop
  endfacet
  facet normal 0.4817536739043336 -0.8763066801523751 0
    outer loop
      vertex 11.87539378553629 1.044852264225483 0
      vertex 11.49022752046585 0.8331053182482719 4
      vertex 11.49022752046585 0.8331053182482719 0
    endloop
  endfacet
  facet normal 0.4817536739043336 -0.8763066801523751 0
    outer loop
      vertex 11.87539378553629 1.044852264225483 0
      vertex 11.87539378553629 1.044852264225483 4
      vertex 11.49022752046585 0.8331053182482719 4
    endloop
  endfacet
  facet normal 0.5877852487188554 -0.8090169969713327 0
    outer loop
      vertex 12.230983965098858 1.3032036498188972 0
      vertex 11.87539378553629 1.044852264225483 4
      vertex 11.87539378553629 1.044852264225483 0
    endloop
  endfacet
  facet normal 0.5877852487188554 -0.8090169969713327 0
    outer loop
      vertex 12.230983965098858 1.3032036498188972 0
      vertex 12.230983965098858 1.3032036498188972 4
      vertex 11.87539378553629 1.044852264225483 4
    endloop
  endfacet
  facet normal 0.6845471144281494 -0.7289686194398866 0
    outer loop
      vertex 12.551390193402767 1.6040851324796677 0
      vertex 12.230983965098858 1.3032036498188972 4
      vertex 12.230983965098858 1.3032036498188972 0
    endloop
  endfacet
  facet normal 0.6845471144281494 -0.7289686194398866 0
    outer loop
      vertex 12.551390193402767 1.6040851324796677 0
      vertex 12.551390193402767 1.6040851324796677 4
      vertex 12.230983965098858 1.3032036498188972 4
    endloop
  endfacet
  facet normal 0.7705132374365963 -0.6374239962026652 0
    outer loop
      vertex 12.831559479236603 1.9427516162395477 0
      vertex 12.551390193402767 1.6040851324796677 4
      vertex 12.551390193402767 1.6040851324796677 0
    endloop
  endfacet
  facet normal 0.7705132374365963 -0.6374239962026652 0
    outer loop
      vertex 12.831559479236603 1.9427516162395477 0
      vertex 12.831559479236603 1.9427516162395477 4
      vertex 12.551390193402767 1.6040851324796677 4
    endloop
  endfacet
  facet normal 0.844327920469426 -0.535826802909088 0
    outer loop
      vertex 13.06707338243723 2.3138621374964714 0
      vertex 12.831559479236603 1.9427516162395477 4
      vertex 12.831559479236603 1.9427516162395477 0
    endloop
  endfacet
  facet normal 0.844327920469426 -0.535826802909088 0
    outer loop
      vertex 13.06707338243723 2.3138621374964714 0
      vertex 13.06707338243723 2.3138621374964714 4
      vertex 12.831559479236603 1.9427516162395477 4
    endloop
  endfacet
  facet normal 0.9048270563762764 -0.4257792832553537 0
    outer loop
      vertex 13.254217699170113 2.711564064025879 0
      vertex 13.06707338243723 2.3138621374964714 4
      vertex 13.06707338243723 2.3138621374964714 0
    endloop
  endfacet
  facet normal 0.9048270563762764 -0.4257792832553537 0
    outer loop
      vertex 13.254217699170113 2.711564064025879 0
      vertex 13.254217699170113 2.711564064025879 4
      vertex 13.06707338243723 2.3138621374964714 4
    endloop
  endfacet
  facet normal 0.9510565173515054 -0.3090169911238305 0
    outer loop
      vertex 13.390041060745716 3.1295853927731514 0
      vertex 13.254217699170113 2.711564064025879 4
      vertex 13.254217699170113 2.711564064025879 0
    endloop
  endfacet
  facet normal 0.9510565173515054 -0.3090169911238305 0
    outer loop
      vertex 13.390041060745716 3.1295853927731514 0
      vertex 13.390041060745716 3.1295853927731514 4
      vertex 13.254217699170113 2.711564064025879 4
    endloop
  endfacet
  facet normal 0.982287249659186 -0.18738132019225448 0
    outer loop
      vertex 13.472401455044746 3.5613336861133575 0
      vertex 13.390041060745716 3.1295853927731514 4
      vertex 13.390041060745716 3.1295853927731514 0
    endloop
  endfacet
  facet normal 0.982287249659186 -0.18738132019225448 0
    outer loop
      vertex 13.472401455044746 3.5613336861133575 0
      vertex 13.472401455044746 3.5613336861133575 4
      vertex 13.390041060745716 3.1295853927731514 4
    endloop
  endfacet
  facet normal 0.9980267284593971 -0.06279051903458702 0
    outer loop
      vertex 13.5 4 0
      vertex 13.472401455044746 3.5613336861133575 4
      vertex 13.472401455044746 3.5613336861133575 0
    endloop
  endfacet
  facet normal 0.9980267284593971 -0.06279051903458702 0
    outer loop
      vertex 13.5 4 0
      vertex 13.5 4 4
      vertex 13.472401455044746 3.5613336861133575 4
    endloop
  endfacet
  facet normal 1 0 0
    outer loop
      vertex 13.5 24 0
      vertex 13.5 4 4
      vertex 13.5 4 0
    endloop
  endfacet
  facet normal 1 0 0
    outer loop
      vertex 13.5 24 0
      vertex 13.5 24 4
      vertex 13.5 4 4
    endloop
  endfacet
  facet normal 0.9980267284593971 0.06279051903458702 0
    outer loop
      vertex 13.472401455044746 24.438666313886642 0
      vertex 13.5 24 4
      vertex 13.5 24 0
    endloop
  endfacet
  facet normal 0.9980267284593971 0.06279051903458702 0
    outer loop
      vertex 13.472401455044746 24.438666313886642 0
      vertex 13.472401455044746 24.438666313886642 4
      vertex 13.5 24 4
    endloop
  endfacet
  facet normal 0.982287249659186 0.18738132019225448 0
    outer loop
      vertex 13.390041060745716 24.87041460722685 0
      vertex 13.472401455044746 24.438666313886642 4
      vertex 13.472401455044746 24.438666313886642 0
    endloop
  endfacet
  facet normal 0.982287249659186 0.18738132019225448 0
    outer loop
      vertex 13.390041060745716 24.87041460722685 0
      vertex 13.390041060745716 24.87041460722685 4
      vertex 13.472401455044746 24.438666313886642 4
    endloop
  endfacet
  facet normal 0.9510565173515054 0.3090169911238305 0
    outer loop
      vertex 13.254217699170113 25.28843593597412 0
      vertex 13.390041060745716 24.87041460722685 4
      vertex 13.390041060745716 24.87041460722685 0
    endloop
  endfacet
  facet normal 0.9510565173515054 0.3090169911238305 0
    outer loop
      vertex 13.254217699170113 25.28843593597412 0
      vertex 13.254217699170113 25.28843593597412 4
      vertex 13.390041060745716 24.87041460722685 4
    endloop
  endfacet
  facet normal 0.9048270563762764 0.4257792832553537 0
    outer loop
      vertex 13.06707338243723 25.68613786250353 0
      vertex 13.254217699170113 25.28843593597412 4
      vertex 13.254217699170113 25.28843593597412 0
    endloop
  endfacet
  facet normal 0.9048270563762764 0.4257792832553537 0
    outer loop
      vertex 13.06707338243723 25.68613786250353 0
      vertex 13.06707338243723 25.68613786250353 4
      vertex 13.254217699170113 25.28843593597412 4
    endloop
  endfacet
  facet normal 0.844327920469426 0.535826802909088 0
    outer loop
      vertex 12.831559479236603 26.057248383760452 0
      vertex 13.06707338243723 25.68613786250353 4
      vertex 13.06707338243723 25.68613786250353 0
    endloop
  endfacet
  facet normal 0.844327920469426 0.535826802909088 0
    outer loop
      vertex 12.831559479236603 26.057248383760452 0
      vertex 12.831559479236603 26.057248383760452 4
      vertex 13.06707338243723 25.68613786250353 4
    endloop
  endfacet
  facet normal 0.7705132374365963 0.6374239962026652 0
    outer loop
      vertex 12.551390193402767 26.395914867520332 0
      vertex 12.831559479236603 26.057248383760452 4
      vertex 12.831559479236603 26.057248383760452 0
    endloop
  endfacet
  facet normal 0.7705132374365963 0.6374239962026652 0
    outer loop
      vertex 12.551390193402767 26.395914867520332 0
      vertex 12.551390193402767 26.395914867520332 4
      vertex 12.831559479236603 26.057248383760452 4
    endloop
  endfacet
  facet normal 0.6845471144281494 0.7289686194398866 0
    outer loop
      vertex 12.230983965098858 26.696796350181103 0
      vertex 12.551390193402767 26.395914867520332 4
      vertex 12.551390193402767 26.395914867520332 0
    endloop
  endfacet
  facet normal 0.6845471144281494 0.7289686194398866 0
    outer loop
      vertex 12.230983965098858 26.696796350181103 0
      vertex 12.230983965098858 26.696796350181103 4
      vertex 12.551390193402767 26.395914867520332 4
    endloop
  endfacet
  facet normal 0.5877852487188554 0.8090169969713327 0
    outer loop
      vertex 11.87539378553629 26.955147735774517 0
      vertex 12.230983965098858 26.696796350181103 4
      vertex 12.230983965098858 26.696796350181103 0
    endloop
  endfacet
  facet normal 0.5877852487188554 0.8090169969713327 0
    outer loop
      vertex 11.87539378553629 26.955147735774517 0
      vertex 11.87539378553629 26.955147735774517 4
      vertex 12.230983965098858 26.696796350181103 4
    endloop
  endfacet
  facet normal 0.4817536739043336 0.8763066801523751 0
    outer loop
      vertex 11.49022752046585 27.166894681751728 0
      vertex 11.87539378553629 26.955147735774517 4
      vertex 11.87539378553629 26.955147735774517 0
    endloop
  endfacet
  facet normal 0.4817536739043336 0.8763066801523751 0
    outer loop
      vertex 11.49022752046585 27.166894681751728 0
      vertex 11.49022752046585 27.166894681751728 4
      vertex 11.87539378553629 26.955147735774517 4
    endloop
  endfacet
  facet normal 0.36812455762530033 0.9297764839321205 0
    outer loop
      vertex 11.081559479236603 27.328697808086872 0
      vertex 11.49022752046585 27.166894681751728 4
      vertex 11.49022752046585 27.166894681751728 0
    endloop
  endfacet
  facet normal 0.36812455762530033 0.9297764839321205 0
    outer loop
      vertex 11.081559479236603 27.328697808086872 0
      vertex 11.081559479236603 27.328697808086872 4
      vertex 11.49022752046585 27.166894681751728 4
    endloop
  endfacet
  facet normal 0.24868989104821995 0.9685831601315523 0
    outer loop
      vertex 10.655834600329399 27.43800538033247 0
      vertex 11.081559479236603 27.328697808086872 4
      vertex 11.081559479236603 27.328697808086872 0
    endloop
  endfacet
  facet normal 0.24868989104821995 0.9685831601315523 0
    outer loop
      vertex 10.655834600329399 27.43800538033247 0
      vertex 10.655834600329399 27.43800538033247 4
      vertex 11.081559479236603 27.328697808086872 4
    endloop
  endfacet
  facet normal 0.12533322901623603 0.9921147018890325 0
    outer loop
      vertex 10.219766817986965 27.49309355020523 0
      vertex 10.655834600329399 27.43800538033247 4
      vertex 10.655834600329399 27.43800538033247 0
    endloop
  endfacet
  facet normal 0.12533322901623603 0.9921147018890325 0
    outer loop
      vertex 10.219766817986965 27.49309355020523 0
      vertex 10.219766817986965 27.49309355020523 4
      vertex 10.655834600329399 27.43800538033247 4
    endloop
  endfacet
  facet normal 0 1 0
    outer loop
      vertex 4 27.49309355020523 0
      vertex 10.219766817986965 27.49309355020523 4
      vertex 10.219766817986965 27.49309355020523 0
    endloop
  endfacet
  facet normal 0 1 0
    outer loop
      vertex 4 27.49309355020523 0
      vertex 4 27.49309355020523 4
      vertex 10.219766817986965 27.49309355020523 4
    endloop
  endfacet
  facet normal 1 0 0
    outer loop
      vertex 4 29 0
      vertex 4 27.49309355020523 4
      vertex 4 27.49309355020523 0
    endloop
  endfacet
  facet normal 1 0 0
    outer loop
      vertex 4 29 0
      vertex 4 29 4
      vertex 4 27.49309355020523 4
    endloop
  endfacet
  facet normal 0 1 0
    outer loop
      vertex 2 29 0
      vertex 4 29 4
      vertex 4 29 0
    endloop
  endfacet
  facet normal 0 1 0
    outer loop
      vertex 2 29 0
      vertex 2 29 4
      vertex 4 29 4
    endloop
  endfacet
  facet normal -1 0 0
    outer loop
      vertex 2 27.49309355020523 0
      vertex 2 29 4
      vertex 2 29 0
    endloop
  endfacet
  facet normal -1 0 0
    outer loop
      vertex 2 27.49309355020523 0
      vertex 2 27.49309355020523 4
      vertex 2 29 4
    endloop
  endfacet
  facet normal 0 1 0
    outer loop
      vertex -0.21976681798696518 27.49309355020523 0
      vertex 2 27.49309355020523 4
      vertex 2 27.49309355020523 0
    endloop
  endfacet
  facet normal 0 1 0
    outer loop
      vertex -0.21976681798696518 27.49309355020523 0
      vertex -0.21976681798696518 27.49309355020523 4
      vertex 2 27.49309355020523 4
    endloop
  endfacet
  facet normal -0.12533322901623603 0.9921147018890325 0
    outer loop
      vertex -0.6558346003293991 27.43800538033247 0
      vertex -0.21976681798696518 27.49309355020523 4
      vertex -0.21976681798696518 27.49309355020523 0
    endloop
  endfacet
  facet normal -0.12533322901623603 0.9921147018890325 0
    outer loop
      vertex -0.6558346003293991 27.43800538033247 0
      vertex -0.6558346003293991 27.43800538033247 4
      vertex -0.21976681798696518 27.49309355020523 4
    endloop
  endfacet
  facet normal -0.24868989104821995 0.9685831601315523 0
    outer loop
      vertex -1.0815594792366028 27.328697808086872 0
      vertex -0.6558346003293991 27.43800538033247 4
      vertex -0.6558346003293991 27.43800538033247 0
    endloop
  endfacet
  facet normal -0.24868989104821995 0.9685831601315523 0
    outer loop
      vertex -1.0815594792366028 27.328697808086872 0
      vertex -1.0815594792366028 27.328697808086872 4
      vertex -0.6558346003293991 27.43800538033247 4
    endloop
  endfacet
  facet normal -0.36812455762530033 0.9297764839321205 0
    outer loop
      vertex -1.4902275204658508 27.166894681751728 0
      vertex -1.0815594792366028 27.328697808086872 4
      vertex -1.0815594792366028 27.328697808086872 0
    endloop
  endfacet
  facet normal -0.36812455762530033 0.9297764839321205 0
    outer loop
      vertex -1.4902275204658508 27.166894681751728 0
      vertex -1.4902275204658508 27.166894681751728 4
      vertex -1.0815594792366028 27.328697808086872 4
    endloop
  endfacet
  facet normal -0.4817536742159017 0.8763066799810891 0
    outer loop
      vertex -1.7938078194856644 27 0
      vertex -1.4902275204658508 27.166894681751728 4
      vertex -1.4902275204658508 27.166894681751728 0
    endloop
  endfacet
  facet normal -0.4817536742159017 0.8763066799810891 0
    outer loop
      vertex -1.7938078194856644 27 0
      vertex -1.7938078194856644 27 4
      vertex -1.4902275204658508 27.166894681751728 4
    endloop
  endfacet
  facet normal 0 1 0
    outer loop
      vertex -2 27 0
      vertex -1.7938078194856644 27 4
      vertex -1.7938078194856644 27 0
    endloop
  endfacet
  facet normal 0 1 0
    outer loop
      vertex -2 27 0
      vertex -2 27 4
      vertex -1.7938078194856644 27 4
    endloop
  endfacet
  facet normal -1 0 0
    outer loop
      vertex -2 26.86461602151394 0
      vertex -2 27 4
      vertex -2 27 0
    endloop
  endfacet
  facet normal -1 0 0
    outer loop
      vertex -2 26.86461602151394 0
      vertex -2 26.86461602151394 4
      vertex -2 27 4
    endloop
  endfacet
  facet normal -0.587785246334997 0.8090169987033071 0
    outer loop
      vertex -2.230983965098858 26.696796350181103 0
      vertex -2 26.86461602151394 4
      vertex -2 26.86461602151394 0
    endloop
  endfacet
  facet normal -0.587785246334997 0.8090169987033071 0
    outer loop
      vertex -2.230983965098858 26.696796350181103 0
      vertex -2.230983965098858 26.696796350181103 4
      vertex -2 26.86461602151394 4
    endloop
  endfacet
  facet normal -0.6845471144281494 0.7289686194398866 0
    outer loop
      vertex -2.551390193402767 26.395914867520332 0
      vertex -2.230983965098858 26.696796350181103 4
      vertex -2.230983965098858 26.696796350181103 0
    endloop
  endfacet
  facet normal -0.6845471144281494 0.7289686194398866 0
    outer loop
      vertex -2.551390193402767 26.395914867520332 0
      vertex -2.551390193402767 26.395914867520332 4
      vertex -2.230983965098858 26.696796350181103 4
    endloop
  endfacet
  facet normal -0.7705132374365963 0.6374239962026652 0
    outer loop
      vertex -2.831559479236603 26.057248383760452 0
      vertex -2.551390193402767 26.395914867520332 4
      vertex -2.551390193402767 26.395914867520332 0
    endloop
  endfacet
  facet normal -0.7705132374365963 0.6374239962026652 0
    outer loop
      vertex -2.831559479236603 26.057248383760452 0
      vertex -2.831559479236603 26.057248383760452 4
      vertex -2.551390193402767 26.395914867520332 4
    endloop
  endfacet
  facet normal -0.844327920469426 0.535826802909088 0
    outer loop
      vertex -3.067073382437229 25.68613786250353 0
      vertex -2.831559479236603 26.057248383760452 4
      vertex -2.831559479236603 26.057248383760452 0
    endloop
  endfacet
  facet normal -0.844327920469426 0.535826802909088 0
    outer loop
      vertex -3.067073382437229 25.68613786250353 0
      vertex -3.067073382437229 25.68613786250353 4
      vertex -2.831559479236603 26.057248383760452 4
    endloop
  endfacet
  facet normal -0.9048270563762764 0.4257792832553537 0
    outer loop
      vertex -3.2542176991701126 25.28843593597412 0
      vertex -3.067073382437229 25.68613786250353 4
      vertex -3.067073382437229 25.68613786250353 0
    endloop
  endfacet
  facet normal -0.9048270563762764 0.4257792832553537 0
    outer loop
      vertex -3.2542176991701126 25.28843593597412 0
      vertex -3.2542176991701126 25.28843593597412 4
      vertex -3.067073382437229 25.68613786250353 4
    endloop
  endfacet
  facet normal -0.9510565173515054 0.3090169911238305 0
    outer loop
      vertex -3.390041060745716 24.87041460722685 0
      vertex -3.2542176991701126 25.28843593597412 4
      vertex -3.2542176991701126 25.28843593597412 0
    endloop
  endfacet
  facet normal -0.9510565173515054 0.3090169911238305 0
    outer loop
      vertex -3.390041060745716 24.87041460722685 0
      vertex -3.390041060745716 24.87041460722685 4
      vertex -3.2542176991701126 25.28843593597412 4
    endloop
  endfacet
  facet normal -0.982287249659186 0.18738132019225448 0
    outer loop
      vertex -3.4724014550447464 24.438666313886642 0
      vertex -3.390041060745716 24.87041460722685 4
      vertex -3.390041060745716 24.87041460722685 0
    endloop
  endfacet
  facet normal -0.982287249659186 0.18738132019225448 0
    outer loop
      vertex -3.4724014550447464 24.438666313886642 0
      vertex -3.4724014550447464 24.438666313886642 4
      vertex -3.390041060745716 24.87041460722685 4
    endloop
  endfacet
  facet normal -0.9980267284593971 0.06279051903458702 0
    outer loop
      vertex -3.5 24 0
      vertex -3.4724014550447464 24.438666313886642 4
      vertex -3.4724014550447464 24.438666313886642 0
    endloop
  endfacet
  facet normal -0.9980267284593971 0.06279051903458702 0
    outer loop
      vertex -3.5 24 0
      vertex -3.5 24 4
      vertex -3.4724014550447464 24.438666313886642 4
    endloop
  endfacet
  facet normal -0.9980267284593971 -0.06279051903458702 0
    outer loop
      vertex -3.4724014550447464 23.561333686113358 0
      vertex -3.5 24 4
      vertex -3.5 24 0
    endloop
  endfacet
  facet normal -0.9980267284593971 -0.06279051903458702 0
    outer loop
      vertex -3.4724014550447464 23.561333686113358 0
      vertex -3.4724014550447464 23.561333686113358 4
      vertex -3.5 24 4
    endloop
  endfacet
  facet normal -0.982287249659186 -0.18738132019225448 0
    outer loop
      vertex -3.390041060745716 23.12958539277315 0
      vertex -3.4724014550447464 23.561333686113358 4
      vertex -3.4724014550447464 23.561333686113358 0
    endloop
  endfacet
  facet normal -0.982287249659186 -0.18738132019225448 0
    outer loop
      vertex -3.390041060745716 23.12958539277315 0
      vertex -3.390041060745716 23.12958539277315 4
      vertex -3.4724014550447464 23.561333686113358 4
    endloop
  endfacet
  facet normal -0.9510565173515054 -0.3090169911238305 0
    outer loop
      vertex -3.2542176991701126 22.71156406402588 0
      vertex -3.390041060745716 23.12958539277315 4
      vertex -3.390041060745716 23.12958539277315 0
    endloop
  endfacet
  facet normal -0.9510565173515054 -0.3090169911238305 0
    outer loop
      vertex -3.2542176991701126 22.71156406402588 0
      vertex -3.2542176991701126 22.71156406402588 4
      vertex -3.390041060745716 23.12958539277315 4
    endloop
  endfacet
  facet normal -0.9048270563762764 -0.4257792832553537 0
    outer loop
      vertex -3.067073382437229 22.31386213749647 0
      vertex -3.2542176991701126 22.71156406402588 4
      vertex -3.2542176991701126 22.71156406402588 0
    endloop
  endfacet
  facet normal -0.9048270563762764 -0.4257792832553537 0
    outer loop
      vertex -3.067073382437229 22.31386213749647 0
      vertex -3.067073382437229 22.31386213749647 4
      vertex -3.2542176991701126 22.71156406402588 4
    endloop
  endfacet
  facet normal -0.844327920469426 -0.535826802909088 0
    outer loop
      vertex -2.831559479236603 21.942751616239548 0
      vertex -3.067073382437229 22.31386213749647 4
      vertex -3.067073382437229 22.31386213749647 0
    endloop
  endfacet
  facet normal -0.844327920469426 -0.535826802909088 0
    outer loop
      vertex -2.831559479236603 21.942751616239548 0
      vertex -2.831559479236603 21.942751616239548 4
      vertex -3.067073382437229 22.31386213749647 4
    endloop
  endfacet
  facet normal -0.7705132374365963 -0.6374239962026652 0
    outer loop
      vertex -2.551390193402767 21.604085132479668 0
      vertex -2.831559479236603 21.942751616239548 4
      vertex -2.831559479236603 21.942751616239548 0
    endloop
  endfacet
  facet normal -0.7705132374365963 -0.6374239962026652 0
    outer loop
      vertex -2.551390193402767 21.604085132479668 0
      vertex -2.551390193402767 21.604085132479668 4
      vertex -2.831559479236603 21.942751616239548 4
    endloop
  endfacet
  facet normal -0.6845471144281494 -0.7289686194398866 0
    outer loop
      vertex -2.230983965098858 21.303203649818897 0
      vertex -2.551390193402767 21.604085132479668 4
      vertex -2.551390193402767 21.604085132479668 0
    endloop
  endfacet
  facet normal -0.6845471144281494 -0.7289686194398866 0
    outer loop
      vertex -2.230983965098858 21.303203649818897 0
      vertex -2.230983965098858 21.303203649818897 4
      vertex -2.551390193402767 21.604085132479668 4
    endloop
  endfacet
  facet normal -0.5877852487188554 -0.8090169969713327 0
    outer loop
      vertex -1.8753937855362892 21.044852264225483 0
      vertex -2.230983965098858 21.303203649818897 4
      vertex -2.230983965098858 21.303203649818897 0
    endloop
  endfacet
  facet normal -0.5877852487188554 -0.8090169969713327 0
    outer loop
      vertex -1.8753937855362892 21.044852264225483 0
      vertex -1.8753937855362892 21.044852264225483 4
      vertex -2.230983965098858 21.303203649818897 4
    endloop
  endfacet
  facet normal -0.4817536739043336 -0.8763066801523751 0
    outer loop
      vertex -1.4902275204658508 20.833105318248272 0
      vertex -1.8753937855362892 21.044852264225483 4
      vertex -1.8753937855362892 21.044852264225483 0
    endloop
  endfacet
  facet normal -0.4817536739043336 -0.8763066801523751 0
    outer loop
      vertex -1.4902275204658508 20.833105318248272 0
      vertex -1.4902275204658508 20.833105318248272 4
      vertex -1.8753937855362892 21.044852264225483 4
    endloop
  endfacet
  facet normal -0.36812455762530033 -0.9297764839321205 0
    outer loop
      vertex -1.0815594792366028 20.671302191913128 0
      vertex -1.4902275204658508 20.833105318248272 4
      vertex -1.4902275204658508 20.833105318248272 0
    endloop
  endfacet
  facet normal -0.36812455762530033 -0.9297764839321205 0
    outer loop
      vertex -1.0815594792366028 20.671302191913128 0
      vertex -1.0815594792366028 20.671302191913128 4
      vertex -1.4902275204658508 20.833105318248272 4
    endloop
  endfacet
  facet normal -0.24868989104821995 -0.9685831601315523 0
    outer loop
      vertex -0.6558346003293991 20.56199461966753 0
      vertex -1.0815594792366028 20.671302191913128 4
      vertex -1.0815594792366028 20.671302191913128 0
    endloop
  endfacet
  facet normal -0.24868989104821995 -0.9685831601315523 0
    outer loop
      vertex -0.6558346003293991 20.56199461966753 0
      vertex -0.6558346003293991 20.56199461966753 4
      vertex -1.0815594792366028 20.671302191913128 4
    endloop
  endfacet
  facet normal -0.12533322901623603 -0.9921147018890325 0
    outer loop
      vertex -0.21976681798696518 20.50690644979477 0
      vertex -0.6558346003293991 20.56199461966753 4
      vertex -0.6558346003293991 20.56199461966753 0
    endloop
  endfacet
  facet normal -0.12533322901623603 -0.9921147018890325 0
    outer loop
      vertex -0.21976681798696518 20.50690644979477 0
      vertex -0.21976681798696518 20.50690644979477 4
      vertex -0.6558346003293991 20.56199461966753 4
    endloop
  endfacet
  facet normal 0 -1 0
    outer loop
      vertex 6.5 20.50690644979477 0
      vertex -0.21976681798696518 20.50690644979477 4
      vertex -0.21976681798696518 20.50690644979477 0
    endloop
  endfacet
  facet normal 0 -1 0
    outer loop
      vertex 6.5 20.50690644979477 0
      vertex 6.5 20.50690644979477 4
      vertex -0.21976681798696518 20.50690644979477 4
    endloop
  endfacet
  facet normal -1 0 0
    outer loop
      vertex 6.5 7.493093550205231 0
      vertex 6.5 20.50690644979477 4
      vertex 6.5 20.50690644979477 0
    endloop
  endfacet
  facet normal -1 0 0
    outer loop
      vertex 6.5 7.493093550205231 0
      vertex 6.5 7.493093550205231 4
      vertex 6.5 20.50690644979477 4
    endloop
  endfacet
  facet normal 0 1 0
    outer loop
      vertex -0.21976681798696518 7.493093550205231 0
      vertex 6.5 7.493093550205231 4
      vertex 6.5 7.493093550205231 0
    endloop
  endfacet
  facet normal 0 1 0
    outer loop
      vertex -0.21976681798696518 7.493093550205231 0
      vertex -0.21976681798696518 7.493093550205231 4
      vertex 6.5 7.493093550205231 4
    endloop
  endfacet
  facet normal -0.12533322901623603 0.9921147018890325 0
    outer loop
      vertex -0.6558346003293991 7.43800538033247 0
      vertex -0.21976681798696518 7.493093550205231 4
      vertex -0.21976681798696518 7.493093550205231 0
    endloop
  endfacet
  facet normal -0.12533322901623603 0.9921147018890325 0
    outer loop
      vertex -0.6558346003293991 7.43800538033247 0
      vertex -0.6558346003293991 7.43800538033247 4
      vertex -0.21976681798696518 7.493093550205231 4
    endloop
  endfacet
  facet normal -0.24868989104821995 0.9685831601315523 0
    outer loop
      vertex -1.0815594792366028 7.328697808086872 0
      vertex -0.6558346003293991 7.43800538033247 4
      vertex -0.6558346003293991 7.43800538033247 0
    endloop
  endfacet
  facet normal -0.24868989104821995 0.9685831601315523 0
    outer loop
      vertex -1.0815594792366028 7.328697808086872 0
      vertex -1.0815594792366028 7.328697808086872 4
      vertex -0.6558346003293991 7.43800538033247 4
    endloop
  endfacet
  facet normal -0.36812455762530033 0.9297764839321205 0
    outer loop
      vertex -1.4902275204658508 7.166894681751728 0
      vertex -1.0815594792366028 7.328697808086872 4
      vertex -1.0815594792366028 7.328697808086872 0
    endloop
  endfacet
  facet normal -0.36812455762530033 0.9297764839321205 0
    outer loop
      vertex -1.4902275204658508 7.166894681751728 0
      vertex -1.4902275204658508 7.166894681751728 4
      vertex -1.0815594792366028 7.328697808086872 4
    endloop
  endfacet
  facet normal -0.4817536739043336 0.8763066801523751 0
    outer loop
      vertex -1.8753937855362892 6.955147735774517 0
      vertex -1.4902275204658508 7.166894681751728 4
      vertex -1.4902275204658508 7.166894681751728 0
    endloop
  endfacet
  facet normal -0.4817536739043336 0.8763066801523751 0
    outer loop
      vertex -1.8753937855362892 6.955147735774517 0
      vertex -1.8753937855362892 6.955147735774517 4
      vertex -1.4902275204658508 7.166894681751728 4
    endloop
  endfacet
  facet normal -0.5877852487188554 0.8090169969713327 0
    outer loop
      vertex -2.230983965098858 6.696796350181103 0
      vertex -1.8753937855362892 6.955147735774517 4
      vertex -1.8753937855362892 6.955147735774517 0
    endloop
  endfacet
  facet normal -0.5877852487188554 0.8090169969713327 0
    outer loop
      vertex -2.230983965098858 6.696796350181103 0
      vertex -2.230983965098858 6.696796350181103 4
      vertex -1.8753937855362892 6.955147735774517 4
    endloop
  endfacet
  facet normal -0.6845471144281494 0.7289686194398866 0
    outer loop
      vertex -2.551390193402767 6.395914867520332 0
      vertex -2.230983965098858 6.696796350181103 4
      vertex -2.230983965098858 6.696796350181103 0
    endloop
  endfacet
  facet normal -0.6845471144281494 0.7289686194398866 0
    outer loop
      vertex -2.551390193402767 6.395914867520332 0
      vertex -2.551390193402767 6.395914867520332 4
      vertex -2.230983965098858 6.696796350181103 4
    endloop
  endfacet
  facet normal -0.7705132374365963 0.6374239962026652 0
    outer loop
      vertex -2.831559479236603 6.057248383760452 0
      vertex -2.551390193402767 6.395914867520332 4
      vertex -2.551390193402767 6.395914867520332 0
    endloop
  endfacet
  facet normal -0.7705132374365963 0.6374239962026652 0
    outer loop
      vertex -2.831559479236603 6.057248383760452 0
      vertex -2.831559479236603 6.057248383760452 4
      vertex -2.551390193402767 6.395914867520332 4
    endloop
  endfacet
  facet normal -0.844327920469426 0.535826802909088 0
    outer loop
      vertex -3.067073382437229 5.686137862503529 0
      vertex -2.831559479236603 6.057248383760452 4
      vertex -2.831559479236603 6.057248383760452 0
    endloop
  endfacet
  facet normal -0.844327920469426 0.535826802909088 0
    outer loop
      vertex -3.067073382437229 5.686137862503529 0
      vertex -3.067073382437229 5.686137862503529 4
      vertex -2.831559479236603 6.057248383760452 4
    endloop
  endfacet
  facet normal -0.9048270563762764 0.4257792832553537 0
    outer loop
      vertex -3.2542176991701126 5.288435935974121 0
      vertex -3.067073382437229 5.686137862503529 4
      vertex -3.067073382437229 5.686137862503529 0
    endloop
  endfacet
  facet normal -0.9048270563762764 0.4257792832553537 0
    outer loop
      vertex -3.2542176991701126 5.288435935974121 0
      vertex -3.2542176991701126 5.288435935974121 4
      vertex -3.067073382437229 5.686137862503529 4
    endloop
  endfacet
  facet normal -0.9510565173515054 0.3090169911238305 0
    outer loop
      vertex -3.390041060745716 4.870414607226849 0
      vertex -3.2542176991701126 5.288435935974121 4
      vertex -3.2542176991701126 5.288435935974121 0
    endloop
  endfacet
  facet normal -0.9510565173515054 0.3090169911238305 0
    outer loop
      vertex -3.390041060745716 4.870414607226849 0
      vertex -3.390041060745716 4.870414607226849 4
      vertex -3.2542176991701126 5.288435935974121 4
    endloop
  endfacet
  facet normal -0.982287249659186 0.18738132019225448 0
    outer loop
      vertex -3.4724014550447464 4.4386663138866425 0
      vertex -3.390041060745716 4.870414607226849 4
      vertex -3.390041060745716 4.870414607226849 0
    endloop
  endfacet
  facet normal -0.982287249659186 0.18738132019225448 0
    outer loop
      vertex -3.4724014550447464 4.4386663138866425 0
      vertex -3.4724014550447464 4.4386663138866425 4
      vertex -3.390041060745716 4.870414607226849 4
    endloop
  endfacet
  facet normal -0.9980267284593971 0.06279051903458702 0
    outer loop
      vertex -3.5 4 0
      vertex -3.4724014550447464 4.4386663138866425 4
      vertex -3.4724014550447464 4.4386663138866425 0
    endloop
  endfacet
  facet normal -0.9980267284593971 0.06279051903458702 0
    outer loop
      vertex -3.5 4 0
      vertex -3.5 4 4
      vertex -3.4724014550447464 4.4386663138866425 4
    endloop
  endfacet
  facet normal -0.9980267284593971 -0.06279051903458702 0
    outer loop
      vertex -3.4724014550447464 3.5613336861133575 0
      vertex -3.5 4 4
      vertex -3.5 4 0
    endloop
  endfacet
  facet normal -0.9980267284593971 -0.06279051903458702 0
    outer loop
      vertex -3.4724014550447464 3.5613336861133575 0
      vertex -3.4724014550447464 3.5613336861133575 4
      vertex -3.5 4 4
    endloop
  endfacet
  facet normal -0.982287249659186 -0.18738132019225448 0
    outer loop
      vertex -3.390041060745716 3.1295853927731514 0
      vertex -3.4724014550447464 3.5613336861133575 4
      vertex -3.4724014550447464 3.5613336861133575 0
    endloop
  endfacet
  facet normal -0.982287249659186 -0.18738132019225448 0
    outer loop
      vertex -3.390041060745716 3.1295853927731514 0
      vertex -3.390041060745716 3.1295853927731514 4
      vertex -3.4724014550447464 3.5613336861133575 4
    endloop
  endfacet
  facet normal -0.9510565173515054 -0.3090169911238305 0
    outer loop
      vertex -3.2542176991701126 2.711564064025879 0
      vertex -3.390041060745716 3.1295853927731514 4
      vertex -3.390041060745716 3.1295853927731514 0
    endloop
  endfacet
  facet normal -0.9510565173515054 -0.3090169911238305 0
    outer loop
      vertex -3.2542176991701126 2.711564064025879 0
      vertex -3.2542176991701126 2.711564064025879 4
      vertex -3.390041060745716 3.1295853927731514 4
    endloop
  endfacet
  facet normal -0.9048270563762764 -0.4257792832553537 0
    outer loop
      vertex -3.067073382437229 2.3138621374964714 0
      vertex -3.2542176991701126 2.711564064025879 4
      vertex -3.2542176991701126 2.711564064025879 0
    endloop
  endfacet
  facet normal -0.9048270563762764 -0.4257792832553537 0
    outer loop
      vertex -3.067073382437229 2.3138621374964714 0
      vertex -3.067073382437229 2.3138621374964714 4
      vertex -3.2542176991701126 2.711564064025879 4
    endloop
  endfacet
  facet normal -0.844327921743456 -0.5358268009015381 0
    outer loop
      vertex -2.8678904101252556 2 0
      vertex -3.067073382437229 2.3138621374964714 4
      vertex -3.067073382437229 2.3138621374964714 0
    endloop
  endfacet
  facet normal -0.844327921743456 -0.5358268009015381 0
    outer loop
      vertex -2.8678904101252556 2 0
      vertex -2.8678904101252556 2 4
      vertex -3.067073382437229 2.3138621374964714 4
    endloop
  endfacet
  facet normal 0 1 0
    outer loop
      vertex -4 2 0
      vertex -2.8678904101252556 2 4
      vertex -2.8678904101252556 2 0
    endloop
  endfacet
  facet normal 0 1 0
    outer loop
      vertex -4 2 0
      vertex -4 2 4
      vertex -2.8678904101252556 2 4
    endloop
  endfacet
  facet normal -1 0 0
    outer loop
      vertex -4 0 0
      vertex -4 2 4
      vertex -4 2 0
    endloop
  endfacet
  facet normal -1 0 0
    outer loop
      vertex -4 0 0
      vertex -4 0 4
      vertex -4 2 4
    endloop
  endfacet
  facet normal 0 -1 0
    outer loop
      vertex 4 0 0
      vertex -4 0 4
      vertex -4 0 0
    endloop
  endfacet
  facet normal 0 -1 0
    outer loop
      vertex 4 0 0
      vertex 4 0 4
      vertex -4 0 4
    endloop
  endfacet
  facet normal 1 0 0
    outer loop
      vertex 4 0.5069064497947693 0
      vertex 4 0 4
      vertex 4 0 0
    endloop
  endfacet
  facet normal 1 0 0
    outer loop
      vertex 4 0.5069064497947693 0
      vertex 4 0.5069064497947693 4
      vertex 4 0 4
    endloop
  endfacet
  facet normal 0 0 1
    outer loop
      vertex -2 27 4
      vertex -2 29 4
      vertex -4 29 4
    endloop
  endfacet
  facet normal 0 0 1
    outer loop
      vertex -4 27 4
      vertex -2 27 4
      vertex -4 29 4
    endloop
  endfacet
  facet normal 0 0 1
    outer loop
      vertex -2.8678904101252556 2 4
      vertex -4 2 4
      vertex -4 0 4
    endloop
  endfacet
  facet normal 0 0 1
    outer loop
      vertex 4 27.49309355020523 4
      vertex 4 29 4
      vertex 2 29 4
    endloop
  endfacet
  facet normal 0 0 1
    outer loop
      vertex 4 27.49309355020523 4
      vertex 2 29 4
      vertex 2 27.49309355020523 4
    endloop
  endfacet
  facet normal 0 0 1
    outer loop
      vertex -1.7938078194856644 27 4
      vertex -2 27 4
      vertex -2 26.86461602151394 4
    endloop
  endfacet
  facet normal 0 0 1
    outer loop
      vertex -2.8678904101252556 2 4
      vertex -4 0 4
      vertex 4 0 4
    endloop
  endfacet
  facet normal 0 0 1
    outer loop
      vertex -2.8678904101252556 2 4
      vertex 4 0 4
      vertex 4 0.5069064497947693 4
    endloop
  endfacet
  facet normal 0 0 1
    outer loop
      vertex -3.067073382437229 2.3138621374964714 4
      vertex -2.8678904101252556 2 4
      vertex 4 0.5069064497947693 4
    endloop
  endfacet
  facet normal 0 0 1
    outer loop
      vertex -3.2542176991701126 2.711564064025879 4
      vertex -3.067073382437229 2.3138621374964714 4
      vertex 4 0.5069064497947693 4
    endloop
  endfacet
  facet normal 0 0 1
    outer loop
      vertex -3.390041060745716 3.1295853927731514 4
      vertex -3.2542176991701126 2.711564064025879 4
      vertex 4 0.5069064497947693 4
    endloop
  endfacet
  facet normal 0 0 1
    outer loop
      vertex -3.4724014550447464 3.5613336861133575 4
      vertex -3.390041060745716 3.1295853927731514 4
      vertex 4 0.5069064497947693 4
    endloop
  endfacet
  facet normal 0 0 1
    outer loop
      vertex -3.5 4 4
      vertex -3.4724014550447464 3.5613336861133575 4
      vertex 4 0.5069064497947693 4
    endloop
  endfacet
  facet normal 0 0 1
    outer loop
      vertex -3.4724014550447464 4.4386663138866425 4
      vertex -3.5 4 4
      vertex 4 0.5069064497947693 4
    endloop
  endfacet
  facet normal 0 0 1
    outer loop
      vertex -3.390041060745716 4.870414607226849 4
      vertex -3.4724014550447464 4.4386663138866425 4
      vertex 4 0.5069064497947693 4
    endloop
  endfacet
  facet normal 0 0 1
    outer loop
      vertex -3.2542176991701126 5.288435935974121 4
      vertex -3.390041060745716 4.870414607226849 4
      vertex 4 0.5069064497947693 4
    endloop
  endfacet
  facet normal 0 0 1
    outer loop
      vertex -3.067073382437229 5.686137862503529 4
      vertex -3.2542176991701126 5.288435935974121 4
      vertex 4 0.5069064497947693 4
    endloop
  endfacet
  facet normal 0 0 1
    outer loop
      vertex -2.831559479236603 6.057248383760452 4
      vertex -3.067073382437229 5.686137862503529 4
      vertex 4 0.5069064497947693 4
    endloop
  endfacet
  facet normal 0 0 1
    outer loop
      vertex -2.551390193402767 6.395914867520332 4
      vertex -2.831559479236603 6.057248383760452 4
      vertex 4 0.5069064497947693 4
    endloop
  endfacet
  facet normal 0 0 1
    outer loop
      vertex -2.230983965098858 6.696796350181103 4
      vertex -2.551390193402767 6.395914867520332 4
      vertex 4 0.5069064497947693 4
    endloop
  endfacet
  facet normal 0 0 1
    outer loop
      vertex -1.8753937855362892 6.955147735774517 4
      vertex -2.230983965098858 6.696796350181103 4
      vertex 4 0.5069064497947693 4
    endloop
  endfacet
  facet normal 0 0 1
    outer loop
      vertex -1.4902275204658508 7.166894681751728 4
      vertex -1.8753937855362892 6.955147735774517 4
      vertex 4 0.5069064497947693 4
    endloop
  endfacet
  facet normal 0 0 1
    outer loop
      vertex -1.0815594792366028 7.328697808086872 4
      vertex -1.4902275204658508 7.166894681751728 4
      vertex 4 0.5069064497947693 4
    endloop
  endfacet
  facet normal 0 0 1
    outer loop
      vertex -0.6558346003293991 7.43800538033247 4
      vertex -1.0815594792366028 7.328697808086872 4
      vertex 4 0.5069064497947693 4
    endloop
  endfacet
  facet normal 0 0 1
    outer loop
      vertex -0.21976681798696518 7.493093550205231 4
      vertex -0.6558346003293991 7.43800538033247 4
      vertex 4 0.5069064497947693 4
    endloop
  endfacet
  facet normal 0 0 1
    outer loop
      vertex 6.5 7.493093550205231 4
      vertex -0.21976681798696518 7.493093550205231 4
      vertex 4 0.5069064497947693 4
    endloop
  endfacet
  facet normal 0 0 1
    outer loop
      vertex 6.5 7.493093550205231 4
      vertex 4 0.5069064497947693 4
      vertex 10.219766817986965 0.5069064497947693 4
    endloop
  endfacet
  facet normal 0 0 1
    outer loop
      vertex 6.5 7.493093550205231 4
      vertex 10.219766817986965 0.5069064497947693 4
      vertex 10.655834600329399 0.5619946196675301 4
    endloop
  endfacet
  facet normal 0 0 1
    outer loop
      vertex 6.5 7.493093550205231 4
      vertex 10.655834600329399 0.5619946196675301 4
      vertex 11.081559479236603 0.6713021919131279 4
    endloop
  endfacet
  facet normal 0 0 1
    outer loop
      vertex 6.5 7.493093550205231 4
      vertex 11.081559479236603 0.6713021919131279 4
      vertex 11.49022752046585 0.8331053182482719 4
    endloop
  endfacet
  facet normal 0 0 1
    outer loop
      vertex 6.5 7.493093550205231 4
      vertex 11.49022752046585 0.8331053182482719 4
      vertex 11.87539378553629 1.044852264225483 4
    endloop
  endfacet
  facet normal 0 0 1
    outer loop
      vertex 6.5 7.493093550205231 4
      vertex 11.87539378553629 1.044852264225483 4
      vertex 12.230983965098858 1.3032036498188972 4
    endloop
  endfacet
  facet normal 0 0 1
    outer loop
      vertex 6.5 7.493093550205231 4
      vertex 12.230983965098858 1.3032036498188972 4
      vertex 12.551390193402767 1.6040851324796677 4
    endloop
  endfacet
  facet normal 0 0 1
    outer loop
      vertex 6.5 7.493093550205231 4
      vertex 12.551390193402767 1.6040851324796677 4
      vertex 12.831559479236603 1.9427516162395477 4
    endloop
  endfacet
  facet normal 0 0 1
    outer loop
      vertex 6.5 7.493093550205231 4
      vertex 12.831559479236603 1.9427516162395477 4
      vertex 13.06707338243723 2.3138621374964714 4
    endloop
  endfacet
  facet normal 0 0 1
    outer loop
      vertex 6.5 7.493093550205231 4
      vertex 13.06707338243723 2.3138621374964714 4
      vertex 13.254217699170113 2.711564064025879 4
    endloop
  endfacet
  facet normal 0 0 1
    outer loop
      vertex 6.5 7.493093550205231 4
      vertex 13.254217699170113 2.711564064025879 4
      vertex 13.390041060745716 3.1295853927731514 4
    endloop
  endfacet
  facet normal 0 0 1
    outer loop
      vertex 6.5 7.493093550205231 4
      vertex 13.390041060745716 3.1295853927731514 4
      vertex 13.472401455044746 3.5613336861133575 4
    endloop
  endfacet
  facet normal 0 0 1
    outer loop
      vertex 6.5 7.493093550205231 4
      vertex 13.472401455044746 3.5613336861133575 4
      vertex 13.5 4 4
    endloop
  endfacet
  facet normal 0 0 1
    outer loop
      vertex 6.5 20.50690644979477 4
      vertex 6.5 7.493093550205231 4
      vertex 13.5 4 4
    endloop
  endfacet
  facet normal 0 0 1
    outer loop
      vertex 6.5 20.50690644979477 4
      vertex 13.5 4 4
      vertex 13.5 24 4
    endloop
  endfacet
  facet normal 0 0 1
    outer loop
      vertex 6.5 20.50690644979477 4
      vertex 13.5 24 4
      vertex 13.472401455044746 24.438666313886642 4
    endloop
  endfacet
  facet normal 0 0 1
    outer loop
      vertex 6.5 20.50690644979477 4
      vertex 13.472401455044746 24.438666313886642 4
      vertex 13.390041060745716 24.87041460722685 4
    endloop
  endfacet
  facet normal 0 0 1
    outer loop
      vertex 6.5 20.50690644979477 4
      vertex 13.390041060745716 24.87041460722685 4
      vertex 13.254217699170113 25.28843593597412 4
    endloop
  endfacet
  facet normal 0 0 1
    outer loop
      vertex 6.5 20.50690644979477 4
      vertex 13.254217699170113 25.28843593597412 4
      vertex 13.06707338243723 25.68613786250353 4
    endloop
  endfacet
  facet normal 0 0 1
    outer loop
      vertex 6.5 20.50690644979477 4
      vertex 13.06707338243723 25.68613786250353 4
      vertex 12.831559479236603 26.057248383760452 4
    endloop
  endfacet
  facet normal 0 0 1
    outer loop
      vertex 6.5 20.50690644979477 4
      vertex 12.831559479236603 26.057248383760452 4
      vertex 12.551390193402767 26.395914867520332 4
    endloop
  endfacet
  facet normal 0 0 1
    outer loop
      vertex 6.5 20.50690644979477 4
      vertex 12.551390193402767 26.395914867520332 4
      vertex 12.230983965098858 26.696796350181103 4
    endloop
  endfacet
  facet normal 0 0 1
    outer loop
      vertex 6.5 20.50690644979477 4
      vertex 12.230983965098858 26.696796350181103 4
      vertex 11.87539378553629 26.955147735774517 4
    endloop
  endfacet
  facet normal 0 0 1
    outer loop
      vertex 6.5 20.50690644979477 4
      vertex 11.87539378553629 26.955147735774517 4
      vertex 11.49022752046585 27.166894681751728 4
    endloop
  endfacet
  facet normal 0 0 1
    outer loop
      vertex 6.5 20.50690644979477 4
      vertex 11.49022752046585 27.166894681751728 4
      vertex 11.081559479236603 27.328697808086872 4
    endloop
  endfacet
  facet normal 0 0 1
    outer loop
      vertex 6.5 20.50690644979477 4
      vertex 11.081559479236603 27.328697808086872 4
      vertex 10.655834600329399 27.43800538033247 4
    endloop
  endfacet
  facet normal 0 0 1
    outer loop
      vertex 6.5 20.50690644979477 4
      vertex 10.655834600329399 27.43800538033247 4
      vertex 10.219766817986965 27.49309355020523 4
    endloop
  endfacet
  facet normal 0 0 1
    outer loop
      vertex 6.5 20.50690644979477 4
      vertex 10.219766817986965 27.49309355020523 4
      vertex 4 27.49309355020523 4
    endloop
  endfacet
  facet normal 0 0 1
    outer loop
      vertex -0.21976681798696518 20.50690644979477 4
      vertex 6.5 20.50690644979477 4
      vertex 4 27.49309355020523 4
    endloop
  endfacet
  facet normal 0 0 1
    outer loop
      vertex -0.21976681798696518 20.50690644979477 4
      vertex 4 27.49309355020523 4
      vertex 2 27.49309355020523 4
    endloop
  endfacet
  facet normal 0 0 1
    outer loop
      vertex -0.21976681798696518 20.50690644979477 4
      vertex 2 27.49309355020523 4
      vertex -0.21976681798696518 27.49309355020523 4
    endloop
  endfacet
  facet normal 0 0 1
    outer loop
      vertex -0.6558346003293991 20.56199461966753 4
      vertex -0.21976681798696518 20.50690644979477 4
      vertex -0.21976681798696518 27.49309355020523 4
    endloop
  endfacet
  facet normal 0 0 1
    outer loop
      vertex -1.0815594792366028 20.671302191913128 4
      vertex -0.6558346003293991 20.56199461966753 4
      vertex -0.21976681798696518 27.49309355020523 4
    endloop
  endfacet
  facet normal 0 0 1
    outer loop
      vertex -1.0815594792366028 20.671302191913128 4
      vertex -0.21976681798696518 27.49309355020523 4
      vertex -0.6558346003293991 27.43800538033247 4
    endloop
  endfacet
  facet normal 0 0 1
    outer loop
      vertex -1.0815594792366028 20.671302191913128 4
      vertex -0.6558346003293991 27.43800538033247 4
      vertex -1.0815594792366028 27.328697808086872 4
    endloop
  endfacet
  facet normal 0 0 1
    outer loop
      vertex -1.4902275204658508 20.833105318248272 4
      vertex -1.0815594792366028 20.671302191913128 4
      vertex -1.0815594792366028 27.328697808086872 4
    endloop
  endfacet
  facet normal 0 0 1
    outer loop
      vertex -1.4902275204658508 20.833105318248272 4
      vertex -1.0815594792366028 27.328697808086872 4
      vertex -1.4902275204658508 27.166894681751728 4
    endloop
  endfacet
  facet normal 0 0 1
    outer loop
      vertex -1.4902275204658508 20.833105318248272 4
      vertex -1.4902275204658508 27.166894681751728 4
      vertex -1.7938078194856644 27 4
    endloop
  endfacet
  facet normal 0 0 1
    outer loop
      vertex -1.4902275204658508 20.833105318248272 4
      vertex -1.7938078194856644 27 4
      vertex -2 26.86461602151394 4
    endloop
  endfacet
  facet normal 0 0 1
    outer loop
      vertex -1.4902275204658508 20.833105318248272 4
      vertex -2 26.86461602151394 4
      vertex -2.230983965098858 26.696796350181103 4
    endloop
  endfacet
  facet normal 0 0 1
    outer loop
      vertex -1.4902275204658508 20.833105318248272 4
      vertex -2.230983965098858 26.696796350181103 4
      vertex -2.551390193402767 26.395914867520332 4
    endloop
  endfacet
  facet normal 0 0 1
    outer loop
      vertex -1.8753937855362892 21.044852264225483 4
      vertex -1.4902275204658508 20.833105318248272 4
      vertex -2.551390193402767 26.395914867520332 4
    endloop
  endfacet
  facet normal 0 0 1
    outer loop
      vertex -2.230983965098858 21.303203649818897 4
      vertex -1.8753937855362892 21.044852264225483 4
      vertex -2.551390193402767 26.395914867520332 4
    endloop
  endfacet
  facet normal 0 0 1
    outer loop
      vertex -2.551390193402767 21.604085132479668 4
      vertex -2.230983965098858 21.303203649818897 4
      vertex -2.551390193402767 26.395914867520332 4
    endloop
  endfacet
  facet normal 0 0 1
    outer loop
      vertex -2.831559479236603 21.942751616239548 4
      vertex -2.551390193402767 21.604085132479668 4
      vertex -2.551390193402767 26.395914867520332 4
    endloop
  endfacet
  facet normal 0 0 1
    outer loop
      vertex -2.831559479236603 21.942751616239548 4
      vertex -2.551390193402767 26.395914867520332 4
      vertex -2.831559479236603 26.057248383760452 4
    endloop
  endfacet
  facet normal 0 0 1
    outer loop
      vertex -3.067073382437229 22.31386213749647 4
      vertex -2.831559479236603 21.942751616239548 4
      vertex -2.831559479236603 26.057248383760452 4
    endloop
  endfacet
  facet normal 0 0 1
    outer loop
      vertex -3.2542176991701126 22.71156406402588 4
      vertex -3.067073382437229 22.31386213749647 4
      vertex -2.831559479236603 26.057248383760452 4
    endloop
  endfacet
  facet normal 0 0 1
    outer loop
      vertex -3.390041060745716 23.12958539277315 4
      vertex -3.2542176991701126 22.71156406402588 4
      vertex -2.831559479236603 26.057248383760452 4
    endloop
  endfacet
  facet normal 0 0 1
    outer loop
      vertex -3.390041060745716 23.12958539277315 4
      vertex -2.831559479236603 26.057248383760452 4
      vertex -3.067073382437229 25.68613786250353 4
    endloop
  endfacet
  facet normal 0 0 1
    outer loop
      vertex -3.390041060745716 23.12958539277315 4
      vertex -3.067073382437229 25.68613786250353 4
      vertex -3.2542176991701126 25.28843593597412 4
    endloop
  endfacet
  facet normal 0 0 1
    outer loop
      vertex -3.390041060745716 23.12958539277315 4
      vertex -3.2542176991701126 25.28843593597412 4
      vertex -3.390041060745716 24.87041460722685 4
    endloop
  endfacet
  facet normal 0 0 1
    outer loop
      vertex -3.4724014550447464 23.561333686113358 4
      vertex -3.390041060745716 23.12958539277315 4
      vertex -3.390041060745716 24.87041460722685 4
    endloop
  endfacet
  facet normal 0 0 1
    outer loop
      vertex -3.390041060745716 24.87041460722685 4
      vertex -3.4724014550447464 24.438666313886642 4
      vertex -3.5 24 4
    endloop
  endfacet
  facet normal 0 0 1
    outer loop
      vertex -3.4724014550447464 23.561333686113358 4
      vertex -3.390041060745716 24.87041460722685 4
      vertex -3.5 24 4
    endloop
  endfacet
  facet normal 0 0 -1
    outer loop
      vertex -4 29 0
      vertex -2 29 0
      vertex -2 27 0
    endloop
  endfacet
  facet normal 0 0 -1
    outer loop
      vertex -4 29 0
      vertex -2 27 0
      vertex -4 27 0
    endloop
  endfacet
  facet normal 0 0 -1
    outer loop
      vertex -4 0 0
      vertex -4 2 0
      vertex -2.8678904101252556 2 0
    endloop
  endfacet
  facet normal 0 0 -1
    outer loop
      vertex 2 29 0
      vertex 4 29 0
      vertex 4 27.49309355020523 0
    endloop
  endfacet
  facet normal 0 0 -1
    outer loop
      vertex 2 27.49309355020523 0
      vertex 2 29 0
      vertex 4 27.49309355020523 0
    endloop
  endfacet
  facet normal 0 0 -1
    outer loop
      vertex -2 26.86461602151394 0
      vertex -2 27 0
      vertex -1.7938078194856644 27 0
    endloop
  endfacet
  facet normal 0 0 -1
    outer loop
      vertex 4 0 0
      vertex -4 0 0
      vertex -2.8678904101252556 2 0
    endloop
  endfacet
  facet normal 0 0 -1
    outer loop
      vertex 4 0.5069064497947693 0
      vertex 4 0 0
      vertex -2.8678904101252556 2 0
    endloop
  endfacet
  facet normal 0 0 -1
    outer loop
      vertex 4 0.5069064497947693 0
      vertex -2.8678904101252556 2 0
      vertex -3.067073382437229 2.3138621374964714 0
    endloop
  endfacet
  facet normal 0 0 -1
    outer loop
      vertex 4 0.5069064497947693 0
      vertex -3.067073382437229 2.3138621374964714 0
      vertex -3.2542176991701126 2.711564064025879 0
    endloop
  endfacet
  facet normal 0 0 -1
    outer loop
      vertex 4 0.5069064497947693 0
      vertex -3.2542176991701126 2.711564064025879 0
      vertex -3.390041060745716 3.1295853927731514 0
    endloop
  endfacet
  facet normal 0 0 -1
    outer loop
      vertex 4 0.5069064497947693 0
      vertex -3.390041060745716 3.1295853927731514 0
      vertex -3.4724014550447464 3.5613336861133575 0
    endloop
  endfacet
  facet normal 0 0 -1
    outer loop
      vertex 4 0.5069064497947693 0
      vertex -3.4724014550447464 3.5613336861133575 0
      vertex -3.5 4 0
    endloop
  endfacet
  facet normal 0 0 -1
    outer loop
      vertex 4 0.5069064497947693 0
      vertex -3.5 4 0
      vertex -3.4724014550447464 4.4386663138866425 0
    endloop
  endfacet
  facet normal 0 0 -1
    outer loop
      vertex 4 0.5069064497947693 0
      vertex -3.4724014550447464 4.4386663138866425 0
      vertex -3.390041060745716 4.870414607226849 0
    endloop
  endfacet
  facet normal 0 0 -1
    outer loop
      vertex 4 0.5069064497947693 0
      vertex -3.390041060745716 4.870414607226849 0
      vertex -3.2542176991701126 5.288435935974121 0
    endloop
  endfacet
  facet normal 0 0 -1
    outer loop
      vertex 4 0.5069064497947693 0
      vertex -3.2542176991701126 5.288435935974121 0
      vertex -3.067073382437229 5.686137862503529 0
    endloop
  endfacet
  facet normal 0 0 -1
    outer loop
      vertex 4 0.5069064497947693 0
      vertex -3.067073382437229 5.686137862503529 0
      vertex -2.831559479236603 6.057248383760452 0
    endloop
  endfacet
  facet normal 0 0 -1
    outer loop
      vertex 4 0.5069064497947693 0
      vertex -2.831559479236603 6.057248383760452 0
      vertex -2.551390193402767 6.395914867520332 0
    endloop
  endfacet
  facet normal 0 0 -1
    outer loop
      vertex 4 0.5069064497947693 0
      vertex -2.551390193402767 6.395914867520332 0
      vertex -2.230983965098858 6.696796350181103 0
    endloop
  endfacet
  facet normal 0 0 -1
    outer loop
      vertex 4 0.5069064497947693 0
      vertex -2.230983965098858 6.696796350181103 0
      vertex -1.8753937855362892 6.955147735774517 0
    endloop
  endfacet
  facet normal 0 0 -1
    outer loop
      vertex 4 0.5069064497947693 0
      vertex -1.8753937855362892 6.955147735774517 0
      vertex -1.4902275204658508 7.166894681751728 0
    endloop
  endfacet
  facet normal 0 0 -1
    outer loop
      vertex 4 0.5069064497947693 0
      vertex -1.4902275204658508 7.166894681751728 0
      vertex -1.0815594792366028 7.328697808086872 0
    endloop
  endfacet
  facet normal 0 0 -1
    outer loop
      vertex 4 0.5069064497947693 0
      vertex -1.0815594792366028 7.328697808086872 0
      vertex -0.6558346003293991 7.43800538033247 0
    endloop
  endfacet
  facet normal 0 0 -1
    outer loop
      vertex 4 0.5069064497947693 0
      vertex -0.6558346003293991 7.43800538033247 0
      vertex -0.21976681798696518 7.493093550205231 0
    endloop
  endfacet
  facet normal 0 0 -1
    outer loop
      vertex 4 0.5069064497947693 0
      vertex -0.21976681798696518 7.493093550205231 0
      vertex 6.5 7.493093550205231 0
    endloop
  endfacet
  facet normal 0 0 -1
    outer loop
      vertex 10.219766817986965 0.5069064497947693 0
      vertex 4 0.5069064497947693 0
      vertex 6.5 7.493093550205231 0
    endloop
  endfacet
  facet normal 0 0 -1
    outer loop
      vertex 10.655834600329399 0.5619946196675301 0
      vertex 10.219766817986965 0.5069064497947693 0
      vertex 6.5 7.493093550205231 0
    endloop
  endfacet
  facet normal 0 0 -1
    outer loop
      vertex 11.081559479236603 0.6713021919131279 0
      vertex 10.655834600329399 0.5619946196675301 0
      vertex 6.5 7.493093550205231 0
    endloop
  endfacet
  facet normal 0 0 -1
    outer loop
      vertex 11.49022752046585 0.8331053182482719 0
      vertex 11.081559479236603 0.6713021919131279 0
      vertex 6.5 7.493093550205231 0
    endloop
  endfacet
  facet normal 0 0 -1
    outer loop
      vertex 11.87539378553629 1.044852264225483 0
      vertex 11.49022752046585 0.8331053182482719 0
      vertex 6.5 7.493093550205231 0
    endloop
  endfacet
  facet normal 0 0 -1
    outer loop
      vertex 12.230983965098858 1.3032036498188972 0
      vertex 11.87539378553629 1.044852264225483 0
      vertex 6.5 7.493093550205231 0
    endloop
  endfacet
  facet normal 0 0 -1
    outer loop
      vertex 12.551390193402767 1.6040851324796677 0
      vertex 12.230983965098858 1.3032036498188972 0
      vertex 6.5 7.493093550205231 0
    endloop
  endfacet
  facet normal 0 0 -1
    outer loop
      vertex 12.831559479236603 1.9427516162395477 0
      vertex 12.551390193402767 1.6040851324796677 0
      vertex 6.5 7.493093550205231 0
    endloop
  endfacet
  facet normal 0 0 -1
    outer loop
      vertex 13.06707338243723 2.3138621374964714 0
      vertex 12.831559479236603 1.9427516162395477 0
      vertex 6.5 7.493093550205231 0
    endloop
  endfacet
  facet normal 0 0 -1
    outer loop
      vertex 13.254217699170113 2.711564064025879 0
      vertex 13.06707338243723 2.3138621374964714 0
      vertex 6.5 7.493093550205231 0
    endloop
  endfacet
  facet normal 0 0 -1
    outer loop
      vertex 13.390041060745716 3.1295853927731514 0
      vertex 13.254217699170113 2.711564064025879 0
      vertex 6.5 7.493093550205231 0
    endloop
  endfacet
  facet normal 0 0 -1
    outer loop
      vertex 13.472401455044746 3.5613336861133575 0
      vertex 13.390041060745716 3.1295853927731514 0
      vertex 6.5 7.493093550205231 0
    endloop
  endfacet
  facet normal 0 0 -1
    outer loop
      vertex 13.5 4 0
      vertex 13.472401455044746 3.5613336861133575 0
      vertex 6.5 7.493093550205231 0
    endloop
  endfacet
  facet normal 0 0 -1
    outer loop
      vertex 13.5 4 0
      vertex 6.5 7.493093550205231 0
      vertex 6.5 20.50690644979477 0
    endloop
  endfacet
  facet normal 0 0 -1
    outer loop
      vertex 13.5 24 0
      vertex 13.5 4 0
      vertex 6.5 20.50690644979477 0
    endloop
  endfacet
  facet normal 0 0 -1
    outer loop
      vertex 13.472401455044746 24.438666313886642 0
      vertex 13.5 24 0
      vertex 6.5 20.50690644979477 0
    endloop
  endfacet
  facet normal 0 0 -1
    outer loop
      vertex 13.390041060745716 24.87041460722685 0
      vertex 13.472401455044746 24.438666313886642 0
      vertex 6.5 20.50690644979477 0
    endloop
  endfacet
  facet normal 0 0 -1
    outer loop
      vertex 13.254217699170113 25.28843593597412 0
      vertex 13.390041060745716 24.87041460722685 0
      vertex 6.5 20.50690644979477 0
    endloop
  endfacet
  facet normal 0 0 -1
    outer loop
      vertex 13.06707338243723 25.68613786250353 0
      vertex 13.254217699170113 25.28843593597412 0
      vertex 6.5 20.50690644979477 0
    endloop
  endfacet
  facet normal 0 0 -1
    outer loop
      vertex 12.831559479236603 26.057248383760452 0
      vertex 13.06707338243723 25.68613786250353 0
      vertex 6.5 20.50690644979477 0
    endloop
  endfacet
  facet normal 0 0 -1
    outer loop
      vertex 12.551390193402767 26.395914867520332 0
      vertex 12.831559479236603 26.057248383760452 0
      vertex 6.5 20.50690644979477 0
    endloop
  endfacet
  facet normal 0 0 -1
    outer loop
      vertex 12.230983965098858 26.696796350181103 0
      vertex 12.551390193402767 26.395914867520332 0
      vertex 6.5 20.50690644979477 0
    endloop
  endfacet
  facet normal 0 0 -1
    outer loop
      vertex 11.87539378553629 26.955147735774517 0
      vertex 12.230983965098858 26.696796350181103 0
      vertex 6.5 20.50690644979477 0
    endloop
  endfacet
  facet normal 0 0 -1
    outer loop
      vertex 11.49022752046585 27.166894681751728 0
      vertex 11.87539378553629 26.955147735774517 0
      vertex 6.5 20.50690644979477 0
    endloop
  endfacet
  facet normal 0 0 -1
    outer loop
      vertex 11.081559479236603 27.328697808086872 0
      vertex 11.49022752046585 27.166894681751728 0
      vertex 6.5 20.50690644979477 0
    endloop
  endfacet
  facet normal 0 0 -1
    outer loop
      vertex 10.655834600329399 27.43800538033247 0
      vertex 11.081559479236603 27.328697808086872 0
      vertex 6.5 20.50690644979477 0
    endloop
  endfacet
  facet normal 0 0 -1
    outer loop
      vertex 10.219766817986965 27.49309355020523 0
      vertex 10.655834600329399 27.43800538033247 0
      vertex 6.5 20.50690644979477 0
    endloop
  endfacet
  facet normal 0 0 -1
    outer loop
      vertex 4 27.49309355020523 0
      vertex 10.219766817986965 27.49309355020523 0
      vertex 6.5 20.50690644979477 0
    endloop
  endfacet
  facet normal 0 0 -1
    outer loop
      vertex 4 27.49309355020523 0
      vertex 6.5 20.50690644979477 0
      vertex -0.21976681798696518 20.50690644979477 0
    endloop
  endfacet
  facet normal 0 0 -1
    outer loop
      vertex 2 27.49309355020523 0
      vertex 4 27.49309355020523 0
      vertex -0.21976681798696518 20.50690644979477 0
    endloop
  endfacet
  facet normal 0 0 -1
    outer loop
      vertex -0.21976681798696518 27.49309355020523 0
      vertex 2 27.49309355020523 0
      vertex -0.21976681798696518 20.50690644979477 0
    endloop
  endfacet
  facet normal 0 0 -1
    outer loop
      vertex -0.21976681798696518 27.49309355020523 0
      vertex -0.21976681798696518 20.50690644979477 0
      vertex -0.6558346003293991 20.56199461966753 0
    endloop
  endfacet
  facet normal 0 0 -1
    outer loop
      vertex -0.21976681798696518 27.49309355020523 0
      vertex -0.6558346003293991 20.56199461966753 0
      vertex -1.0815594792366028 20.671302191913128 0
    endloop
  endfacet
  facet normal 0 0 -1
    outer loop
      vertex -0.6558346003293991 27.43800538033247 0
      vertex -0.21976681798696518 27.49309355020523 0
      vertex -1.0815594792366028 20.671302191913128 0
    endloop
  endfacet
  facet normal 0 0 -1
    outer loop
      vertex -1.0815594792366028 27.328697808086872 0
      vertex -0.6558346003293991 27.43800538033247 0
      vertex -1.0815594792366028 20.671302191913128 0
    endloop
  endfacet
  facet normal 0 0 -1
    outer loop
      vertex -1.0815594792366028 27.328697808086872 0
      vertex -1.0815594792366028 20.671302191913128 0
      vertex -1.4902275204658508 20.833105318248272 0
    endloop
  endfacet
  facet normal 0 0 -1
    outer loop
      vertex -1.4902275204658508 27.166894681751728 0
      vertex -1.0815594792366028 27.328697808086872 0
      vertex -1.4902275204658508 20.833105318248272 0
    endloop
  endfacet
  facet normal 0 0 -1
    outer loop
      vertex -1.7938078194856644 27 0
      vertex -1.4902275204658508 27.166894681751728 0
      vertex -1.4902275204658508 20.833105318248272 0
    endloop
  endfacet
  facet normal 0 0 -1
    outer loop
      vertex -2 26.86461602151394 0
      vertex -1.7938078194856644 27 0
      vertex -1.4902275204658508 20.833105318248272 0
    endloop
  endfacet
  facet normal 0 0 -1
    outer loop
      vertex -2.230983965098858 26.696796350181103 0
      vertex -2 26.86461602151394 0
      vertex -1.4902275204658508 20.833105318248272 0
    endloop
  endfacet
  facet normal 0 0 -1
    outer loop
      vertex -2.551390193402767 26.395914867520332 0
      vertex -2.230983965098858 26.696796350181103 0
      vertex -1.4902275204658508 20.833105318248272 0
    endloop
  endfacet
  facet normal 0 0 -1
    outer loop
      vertex -2.551390193402767 26.395914867520332 0
      vertex -1.4902275204658508 20.833105318248272 0
      vertex -1.8753937855362892 21.044852264225483 0
    endloop
  endfacet
  facet normal 0 0 -1
    outer loop
      vertex -2.551390193402767 26.395914867520332 0
      vertex -1.8753937855362892 21.044852264225483 0
      vertex -2.230983965098858 21.303203649818897 0
    endloop
  endfacet
  facet normal 0 0 -1
    outer loop
      vertex -2.551390193402767 26.395914867520332 0
      vertex -2.230983965098858 21.303203649818897 0
      vertex -2.551390193402767 21.604085132479668 0
    endloop
  endfacet
  facet normal 0 0 -1
    outer loop
      vertex -2.551390193402767 26.395914867520332 0
      vertex -2.551390193402767 21.604085132479668 0
      vertex -2.831559479236603 21.942751616239548 0
    endloop
  endfacet
  facet normal 0 0 -1
    outer loop
      vertex -2.831559479236603 26.057248383760452 0
      vertex -2.551390193402767 26.395914867520332 0
      vertex -2.831559479236603 21.942751616239548 0
    endloop
  endfacet
  facet normal 0 0 -1
    outer loop
      vertex -2.831559479236603 26.057248383760452 0
      vertex -2.831559479236603 21.942751616239548 0
      vertex -3.067073382437229 22.31386213749647 0
    endloop
  endfacet
  facet normal 0 0 -1
    outer loop
      vertex -2.831559479236603 26.057248383760452 0
      vertex -3.067073382437229 22.31386213749647 0
      vertex -3.2542176991701126 22.71156406402588 0
    endloop
  endfacet
  facet normal 0 0 -1
    outer loop
      vertex -2.831559479236603 26.057248383760452 0
      vertex -3.2542176991701126 22.71156406402588 0
      vertex -3.390041060745716 23.12958539277315 0
    endloop
  endfacet
  facet normal 0 0 -1
    outer loop
      vertex -3.067073382437229 25.68613786250353 0
      vertex -2.831559479236603 26.057248383760452 0
      vertex -3.390041060745716 23.12958539277315 0
    endloop
  endfacet
  facet normal 0 0 -1
    outer loop
      vertex -3.2542176991701126 25.28843593597412 0
      vertex -3.067073382437229 25.68613786250353 0
      vertex -3.390041060745716 23.12958539277315 0
    endloop
  endfacet
  facet normal 0 0 -1
    outer loop
      vertex -3.390041060745716 24.87041460722685 0
      vertex -3.2542176991701126 25.28843593597412 0
      vertex -3.390041060745716 23.12958539277315 0
    endloop
  endfacet
  facet normal 0 0 -1
    outer loop
      vertex -3.390041060745716 24.87041460722685 0
      vertex -3.390041060745716 23.12958539277315 0
      vertex -3.4724014550447464 23.561333686113358 0
    endloop
  endfacet
  facet normal 0 0 -1
    outer loop
      vertex -3.5 24 0
      vertex -3.4724014550447464 24.438666313886642 0
      vertex -3.390041060745716 24.87041460722685 0
    endloop
  endfacet
  facet normal 0 0 -1
    outer loop
      vertex -3.5 24 0
      vertex -3.390041060745716 24.87041460722685 0
      vertex -3.4724014550447464 23.561333686113358 0
    endloop
  endfacet
endsolid OpenSCAD_Model
