solid OpenSCAD_Model
  facet normal 0 -1 0
    outer loop
      vertex -7 -4.8 0
      vertex -3 -4.8 0
      vertex -3 -4.8 2
    endloop
  endfacet
  facet normal 0 -1 0
    outer loop
      vertex -7 -4.8 0
      vertex -3 -4.8 2
      vertex -7 -4.8 2
    endloop
  endfacet
  facet normal -1 0 0
    outer loop
      vertex -7 -4.8 0
      vertex -7 -4.8 2
      vertex -7 -1.05 2
    endloop
  endfacet
  facet normal 0 0 1
    outer loop
      vertex -7 -4.8 2
      vertex -3 -4.8 2
      vertex -7 -1.05 2
    endloop
  endfacet
  facet normal 0 0 -1
    outer loop
      vertex -7 -4.8 0
      vertex -3 4.8 0
      vertex -3 -4.8 0
    endloop
  endfacet
  facet normal -1 0 0
    outer loop
      vertex -7 -4.8 0
      vertex -7 -1.05 2
      vertex -7 1.05 2
    endloop
  endfacet
  facet normal 0 0 1
    outer loop
      vertex -3 -4.8 2
      vertex -3 -1.05 2
      vertex -7 -1.05 2
    endloop
  endfacet
  facet normal 1 0 0
    outer loop
      vertex -3 -4.8 0
      vertex -3 4.8 0
      vertex -3 -4.8 2
    endloop
  endfacet
  facet normal 1 0 0
    outer loop
      vertex -3 -4.8 2
      vertex -3 4.8 0
      vertex -3 -1.05 2
    endloop
  endfacet
  facet normal 0 0 -1
    outer loop
      vertex -7 -4.8 0
      vertex -7 4.8 0
      vertex -3 4.8 0
    endloop
  endfacet
  facet normal -1 0 0
    outer loop
      vertex -7 -4.8 0
      vertex -7 4.8 2
      vertex -7 4.8 0
    endloop
  endfacet
  facet normal -1 0 0
    outer loop
      vertex -7 -4.8 0
      vertex -7 1.05 2
      vertex -7 4.8 2
    endloop
  endfacet
  facet normal 0 0 1
    outer loop
      vertex -7 4.8 2
      vertex -7 1.05 2
      vertex -3 1.05 2
    endloop
  endfacet
  facet normal 0 1 0
    outer loop
      vertex -7 4.8 0
      vertex -7 4.8 2
      vertex -3 4.8 0
    endloop
  endfacet
  facet normal 0 0 1
    outer loop
      vertex -7 4.8 2
      vertex -3 1.05 2
      vertex -3 4.8 2
    endloop
  endfacet
  facet normal 0 1 0
    outer loop
      vertex -7 4.8 2
      vertex -3 4.8 2
      vertex -3 4.8 0
    endloop
  endfacet
  facet normal 1 0 0
    outer loop
      vertex -3 4.8 0
      vertex -3 1.05 2
      vertex -3 -1.05 2
    endloop
  endfacet
  facet normal 1 0 0
    outer loop
      vertex -3 4.8 2
      vertex -3 1.05 2
      vertex -3 4.8 0
    endloop
  endfacet
  facet normal -1 0 0
    outer loop
      vertex 3 -4.8 0
      vertex 3 -4.8 2
      vertex 3 -1.05 2
    endloop
  endfacet
  facet normal -1 0 0
    outer loop
      vertex 3 -4.8 0
      vertex 3 -1.05 2
      vertex 3 1.05 2
    endloop
  endfacet
  facet normal 0 -1 0
    outer loop
      vertex 3 -4.8 0
      vertex 7 -4.8 0
      vertex 7 -4.8 2
    endloop
  endfacet
  facet normal 0 -1 0
    outer loop
      vertex 3 -4.8 0
      vertex 7 -4.8 2
      vertex 3 -4.8 2
    endloop
  endfacet
  facet normal 0 0 1
    outer loop
      vertex 3 -4.8 2
      vertex 7 -4.8 2
      vertex 3 -1.05 2
    endloop
  endfacet
  facet normal 0 0 -1
    outer loop
      vertex 3 -4.8 0
      vertex 7 4.8 0
      vertex 7 -4.8 0
    endloop
  endfacet
  facet normal 1 0 0
    outer loop
      vertex 7 -4.8 0
      vertex 7 4.8 0
      vertex 7 -4.8 2
    endloop
  endfacet
  facet normal 0 0 1
    outer loop
      vertex 7 -4.8 2
      vertex 7 -1.05 2
      vertex 3 -1.05 2
    endloop
  endfacet
  facet normal 1 0 0
    outer loop
      vertex 7 -4.8 2
      vertex 7 4.8 0
      vertex 7 -1.05 2
    endloop
  endfacet
  facet normal -1 0 0
    outer loop
      vertex 3 -4.8 0
      vertex 3 4.8 2
      vertex 3 4.8 0
    endloop
  endfacet
  facet normal -1 0 0
    outer loop
      vertex 3 -4.8 0
      vertex 3 1.05 2
      vertex 3 4.8 2
    endloop
  endfacet
  facet normal 0 0 -1
    outer loop
      vertex 3 -4.8 0
      vertex 3 4.8 0
      vertex 7 4.8 0
    endloop
  endfacet
  facet normal 0 0 1
    outer loop
      vertex 3 4.8 2
      vertex 3 1.05 2
      vertex 7 1.05 2
    endloop
  endfacet
  facet normal 1 0 0
    outer loop
      vertex 7 4.8 0
      vertex 7 1.05 2
      vertex 7 -1.05 2
    endloop
  endfacet
  facet normal 0 1 0
    outer loop
      vertex 3 4.8 0
      vertex 3 4.8 2
      vertex 7 4.8 0
    endloop
  endfacet
  facet normal 1 0 0
    outer loop
      vertex 7 4.8 2
      vertex 7 1.05 2
      vertex 7 4.8 0
    endloop
  endfacet
  facet normal 0 0 1
    outer loop
      vertex 3 4.8 2
      vertex 7 1.05 2
      vertex 7 4.8 2
    endloop
  endfacet
  facet normal 0 1 0
    outer loop
      vertex 3 4.8 2
      vertex 7 4.8 2
      vertex 7 4.8 0
    endloop
  endfacet
  facet normal 0 -1 0
    outer loop
      vertex -3 -1.05 5
      vertex -7 -1.05 2
      vertex -3 -1.05 2
    endloop
  endfacet
  facet normal -1 0 0
    outer loop
      vertex -7 -1.05 2
      vertex -7 -1.05 5
      vertex -7 1.05 5
    endloop
  endfacet
  facet normal 0 -1 0
    outer loop
      vertex -7 -1.05 2
      vertex -3 -1.05 5
      vertex -7 -1.05 5
    endloop
  endfacet
  facet normal 0 0 1
    outer loop
      vertex -7 -1.05 5
      vertex -3 -1.05 5
      vertex -7 1.05 5
    endloop
  endfacet
  facet normal 1 0 0
    outer loop
      vertex -3 -1.05 5
      vertex -3 -1.05 2
      vertex -3 1.05 2
    endloop
  endfacet
  facet normal -1 0 0
    outer loop
      vertex -7 -1.05 2
      vertex -7 1.05 5
      vertex -7 1.05 2
    endloop
  endfacet
  facet normal 0 1 0
    outer loop
      vertex -7 1.05 2
      vertex -7 1.05 5
      vertex -3 1.05 2
    endloop
  endfacet
  facet normal 0 1 0
    outer loop
      vertex -7 1.05 5
      vertex -3 1.05 5
      vertex -3 1.05 2
    endloop
  endfacet
  facet normal 0 0 1
    outer loop
      vertex -7 1.05 5
      vertex -3 -1.05 5
      vertex -3 1.05 5
    endloop
  endfacet
  facet normal 1 0 0
    outer loop
      vertex -3 -1.05 5
      vertex -3 1.05 2
      vertex -3 1.05 5
    endloop
  endfacet
  facet normal -1 0 0
    outer loop
      vertex 3 -1.05 2
      vertex 3 -1.05 5
      vertex 3 1.05 5
    endloop
  endfacet
  facet normal 0 -1 0
    outer loop
      vertex 7 -1.05 5
      vertex 3 -1.05 2
      vertex 7 -1.05 2
    endloop
  endfacet
  facet normal 1 0 0
    outer loop
      vertex 7 -1.05 5
      vertex 7 -1.05 2
      vertex 7 1.05 2
    endloop
  endfacet
  facet normal 0 -1 0
    outer loop
      vertex 3 -1.05 2
      vertex 7 -1.05 5
      vertex 3 -1.05 5
    endloop
  endfacet
  facet normal 0 0 1
    outer loop
      vertex 3 -1.05 5
      vertex 7 -1.05 5
      vertex 3 1.05 5
    endloop
  endfacet
  facet normal -1 0 0
    outer loop
      vertex 3 -1.05 2
      vertex 3 1.05 5
      vertex 3 1.05 2
    endloop
  endfacet
  facet normal 0 1 0
    outer loop
      vertex 3 1.05 2
      vertex 3 1.05 5
      vertex 7 1.05 2
    endloop
  endfacet
  facet normal 0 1 0
    outer loop
      vertex 3 1.05 5
      vertex 7 1.05 5
      vertex 7 1.05 2
    endloop
  endfacet
  facet normal 1 0 0
    outer loop
      vertex 7 -1.05 5
      vertex 7 1.05 2
      vertex 7 1.05 5
    endloop
  endfacet
  facet normal 0 0 1
    outer loop
      vertex 3 1.05 5
      vertex 7 -1.05 5
      vertex 7 1.05 5
    endloop
  endfacet
endsolid OpenSCAD_Model
